# xmcd
# 
# Track frame offsets:
#     182
#     14347
#     25480
#     45280
#     63837
#     79927
#     92765
#     113525
#     129602
#     141320
#     160727
# 
# Disc length: 2289
# 
# Revision: 9
# Processed by: cddbd v1.5.2PL0 Copyright (c) Steve Scherf et al.
# Submitted via: fre:ac v1.0.31
# 
DISCID=8608ef0b
DTITLE=Columbia Blues - The Paul Butterfield Blues Band
DYEAR=1987
DGENRE=Blues
TTITLE0=Born in Chicago
TTITLE1=Shake Your Moneymaker
TTITLE2=Blues with a Feeling
TTITLE3=Thank You Mr. Poobah
TTITLE4=I Got My Mojo Working
TTITLE5=Mellow Down Easy
TTITLE6=Screamin'
TTITLE7=Our Love is Drifting
TTITLE8=Mystery Train
TTITLE9=Last Night
TTITLE10=Look Over Yonders Wall
EXTD=ID3G:  17 YEAR: 1965
EXTT0=
EXTT1=
EXTT2=
EXTT3=
EXTT4=
EXTT5=
EXTT6=
EXTT7=
EXTT8=
EXTT9=
EXTT10=
PLAYORDER=
